<?xml version="1.0" standalone="no"?>
<!DOCTYPE svg PUBLIC "-//W3C//DTD SVG 20010904//EN"
 "http://www.w3.org/TR/2001/REC-SVG-20010904/DTD/svg10.dtd">
<svg version="1.0" xmlns="http://www.w3.org/2000/svg"
 width="48px" height="48px" viewBox="0 0 225 225"
 preserveAspectRatio="xMidYMid meet">

<g transform="translate(0.000000,225.000000) scale(0.070000,-0.070000)"
fill="#ffffff" stroke="none">
<path d="M943 2145 c-689 -125 -1058 -881 -734 -1502 264 -505 890 -699 1398
-434 505 264 699 890 434 1398 -180 344 -535 556 -926 552 -55 0 -132 -7 -172
-14z m402 -100 c347 -92 605 -346 696 -686 33 -122 34 -347 1 -469 -49 -180
-134 -322 -270 -452 -188 -179 -428 -267 -692 -255 -136 7 -239 31 -355 86
-108 51 -163 89 -254 175 -127 123 -216 272 -263 443 -32 117 -32 355 0 472
98 360 384 626 747 697 89 17 307 11 390 -11z"/>
<path d="M977 1816 c-82 -34 -134 -73 -179 -133 -138 -182 -107 -438 70 -585
l32 -27 -70 -37 c-161 -84 -299 -284 -300 -434 0 -53 13 -70 51 -70 35 0 45
15 54 78 11 83 75 200 143 264 103 94 212 138 347 138 143 0 269 -54 364 -156
67 -71 105 -144 125 -240 17 -82 45 -104 91 -71 15 12 17 23 13 74 -14 155
-144 336 -300 418 l-69 37 40 29 c47 35 102 115 125 183 70 205 -22 429 -214
520 -57 27 -78 31 -165 34 -88 2 -107 0 -158 -22z m280 -98 c241 -113 245
-452 6 -570 -258 -127 -533 127 -432 399 34 90 124 168 224 194 49 13 149 2
202 -23z"/>
</g>
</svg>