<?xml version="1.0" standalone="no"?>
<!DOCTYPE svg PUBLIC "-//W3C//DTD SVG 20010904//EN"
 "http://www.w3.org/TR/2001/REC-SVG-20010904/DTD/svg10.dtd">
<svg version="1.0" xmlns="http://www.w3.org/2000/svg"
 width="530.000000pt" height="470.000000pt" viewBox="0 0 530.000000 470.000000"
 preserveAspectRatio="xMidYMid meet">

<g transform="translate(0.000000,470.000000) scale(0.100000,-0.100000)"
fill="#D63864" stroke="none">
<path d="M2561 4644 c-82 -22 -147 -62 -207 -127 -63 -68 -96 -129 -114 -208
-17 -77 -8 -199 19 -272 41 -107 28 -94 770 -726 80 -68 247 -210 369 -315
l224 -191 -1609 -5 c-1805 -6 -1649 2 -1772 -81 -200 -133 -260 -395 -140
-605 56 -98 132 -160 263 -213 37 -14 188 -16 1648 -21 l1606 -5 -236 -200
c-412 -348 -814 -688 -907 -765 -122 -100 -159 -142 -201 -227 -30 -59 -37
-85 -41 -155 -9 -141 29 -248 126 -351 141 -150 387 -182 561 -72 33 21 811
685 1666 1421 120 104 297 256 391 337 189 162 228 212 264 329 28 92 24 266
-9 348 -29 72 -102 166 -182 233 -110 93 -511 438 -1060 911 -655 566 -1035
889 -1072 913 -96 60 -239 79 -357 47z"/>
</g>
</svg>
