<svg width="492" height="1086" viewBox="0 0 492 1086" fill="none" xmlns="http://www.w3.org/2000/svg">
<path d="M244 0H284V1066C284 1077.05 275.046 1086 264 1086C252.954 1086 244 1077.05 244 1066V0Z" fill="#30363D"/>
<path d="M244 0H284V1086H244V0Z" fill="#30363D"/>
<path d="M324 389V349H396V389H324Z" fill="#30363D"/>
<path d="M168 548C168 586.66 136.66 618 98 618C59.3401 618 28 586.66 28 548C28 509.34 59.3401 478 98 478C136.66 478 168 509.34 168 548ZM65.9068 548C65.9068 565.725 80.2754 580.093 98 580.093C115.725 580.093 130.093 565.725 130.093 548C130.093 530.275 115.725 515.907 98 515.907C80.2754 515.907 65.9068 530.275 65.9068 548Z" fill="#30363D"/>
<path d="M175 671.714L200.555 671.714C221.546 671.518 264 671.65 264 722.5" stroke="#30363D" stroke-width="40"/>
<path d="M186.529 671.698L160.975 671.698C139.983 671.894 98 659.573 98 608.723" stroke="#30363D" stroke-width="40"/>
<path d="M264.002 457.529L264.002 431.975C263.806 410.983 276.127 369 326.977 369" stroke="#30363D" stroke-width="40"/>
<path d="M510 369C510 407.66 478.66 439 440 439C401.34 439 370 407.66 370 369C370 330.34 401.34 299 440 299C478.66 299 510 330.34 510 369ZM407.907 369C407.907 386.725 422.275 401.093 440 401.093C457.725 401.093 472.093 386.725 472.093 369C472.093 351.275 457.725 336.907 440 336.907C422.275 336.907 407.907 351.275 407.907 369Z" fill="#30363D"/>
<path d="M140 -25C140 13.6599 108.66 45 70 45C31.3401 45 0 13.6599 0 -25C0 -63.6599 31.3401 -95 70 -95C108.66 -95 140 -63.6599 140 -25ZM37.9068 -25C37.9068 -7.27539 52.2754 7.09325 70 7.09325C87.7246 7.09325 102.093 -7.27539 102.093 -25C102.093 -42.7246 87.7246 -57.0932 70 -57.0932C52.2754 -57.0932 37.9068 -42.7246 37.9068 -25Z" fill="#30363D"/>
<path d="M70 28C68 101.2 94 122.735 135.5 128C223 139.101 257 195.5 264.5 232" stroke="#30363D" stroke-width="40"/>
<path d="M261 394.5C261 319.7 196.333 300.333 164 300" stroke="#30363D"/>
<path d="M153 678C88.5002 656 53.5001 711 53.5002 751.5" stroke="#30363D"/>
<circle cx="149" cy="300" r="14.5" stroke="#30363D"/>
<circle cx="396" cy="931" r="14.5" stroke="#30363D"/>
<circle cx="54" cy="766" r="14.5" stroke="#30363D"/>
<line x1="284" y1="930.5" x2="381" y2="930.5" stroke="#30363D"/>
</svg>
